# xmcd CD database file
#
# Track frame offsets:
#	150
#	99932
#	108160
#	127517
#	141362
#	172492
#	196152
#
# Disc length: 2803 seconds
#
# Revision: 0
# Processed by: cddbd v1.5.2PL0 Copyright (c) Steve Scherf et al.
# Submitted via: CDex 1.70beta2
#
DISCID=570af107
DTITLE=Ellington,Duke - Jazz At THe Plaza Vol. 2
DYEAR=1993
DGENRE=Jazz
TTITLE0=Jazz Festival Suite
TTITLE1=Jones
TTITLE2=El Gato
TTITLE3=All Of Me
TTITLE4=Go Away Blues
TTITLE5=When Your Lover Has Gone
TTITLE6=Take The "A" Train
EXTD=YEAR: 1993
EXTT0=
EXTT1=
EXTT2=
EXTT3=
EXTT4=
EXTT5=
EXTT6=
PLAYORDER=
